<svg xmlns="http://www.w3.org/2000/svg" width="512" height="512" viewBox="0 0 512 512" fill="none">
  <rect width="512" height="512" rx="64" fill="#0D1117"/>
  <path d="M256 70C151.699 70 67 154.699 67 259C67 363.301 151.699 448 256 448C360.301 448 445 363.301 445 259C445 154.699 360.301 70 256 70ZM256 95.9333C346.126 95.9333 419.067 168.874 419.067 259C419.067 349.126 346.126 422.067 256 422.067C165.874 422.067 92.9333 349.126 92.9333 259C92.9333 168.874 165.874 95.9333 256 95.9333Z" fill="#3B82F6"/>
  <path d="M256 119.033C177.981 119.033 116.033 180.981 116.033 259C116.033 337.019 177.981 398.967 256 398.967C334.019 398.967 395.967 337.019 395.967 259C395.967 180.981 334.019 119.033 256 119.033ZM256 144.967C319.87 144.967 370.033 195.13 370.033 259C370.033 322.87 319.87 373.033 256 373.033C192.13 373.033 141.967 322.87 141.967 259C141.967 195.13 192.13 144.967 256 144.967Z" fill="#4ADE80"/>
  <path d="M217.667 183.3C217.667 175.562 224.129 169.1 231.867 169.1H280.133C287.871 169.1 294.333 175.562 294.333 183.3V206.4H319.8C327.538 206.4 334 212.862 334 220.6V268.867C334 276.604 327.538 283.067 319.8 283.067H294.333V334.7C294.333 342.438 287.871 348.9 280.133 348.9H231.867C224.129 348.9 217.667 342.438 217.667 334.7V283.067H192.2C184.462 283.067 178 276.604 178 268.867V220.6C178 212.862 184.462 206.4 192.2 206.4H217.667V183.3Z" fill="white"/>
</svg>
